<svg xmlns="http://www.w3.org/2000/svg" viewBox="0 0 132 46" width="132" height="46">
  <path fill="#FFFFFF" d="M132 42c0 2.2-1.8 4-4 4H4c-2.2 0-4-1.8-4-4V4c0-2.2 1.8-4 4-4h124c2.2 0 4 1.8 4 4v38z"/>
  <path fill="#00AFD7" d="M41.832 32.012H26.225l1.736-3.014h8.658L25.376 9.47l1.72-2.978"/>
  <path fill="#49C5B1" d="M23.642 12.473l7.787 13.525h-3.47L23.63 18.5 12.34 38H8.904"/>
  <path fill="#F35757" d="M23.627 24.495l1.735 3.004-4.328 7.512h22.53L45.29 38H15.808"/>
  <path fill="#9CABBA" d="M61.794 33.272l-4.997-6.163 4.64-4.605c.202-.2.3-.415.3-.655 0-.487-.418-.914-.895-.914-.313 0-.524.15-.714.318l-7.353 7.538V21.87c0-.515-.418-.934-.933-.934-.496 0-.915.427-.915.933v12.063c0 .506.42.933.915.933.514 0 .933-.418.933-.933v-2.84l2.71-2.71 4.875 6.07c.193.274.445.414.75.414.505 0 .933-.427.933-.933 0-.303-.12-.496-.25-.662zM72.363 29.51c0-2.576-1.636-5.185-4.763-5.185-2.757 0-4.917 2.336-4.917 5.318v.04c0 3.03 2.196 5.318 5.108 5.318 1.553 0 2.74-.474 3.846-1.534.185-.162.287-.377.287-.605 0-.44-.367-.798-.82-.798-.245 0-.418.12-.534.217-.82.753-1.69 1.104-2.74 1.104-1.74 0-3.044-1.204-3.297-3.016h6.974c.472-.002.856-.386.856-.858zm-4.8-3.606c1.926 0 2.79 1.535 2.973 3.035h-6.003c.25-1.797 1.474-3.036 3.03-3.036zM83.22 29.51c0-2.576-1.636-5.185-4.763-5.185-2.757 0-4.916 2.336-4.916 5.318v.04c0 3.03 2.197 5.318 5.108 5.318 1.552 0 2.74-.474 3.845-1.534.185-.162.286-.376.286-.604 0-.44-.368-.8-.82-.8-.245 0-.42.12-.535.218-.82.754-1.69 1.105-2.74 1.105-1.737 0-3.042-1.204-3.295-3.016h6.973c.473-.004.857-.388.857-.86zm-4.8-3.606c1.925 0 2.79 1.535 2.972 3.035H75.39c.25-1.797 1.473-3.036 3.03-3.036zM90.04 24.325c-1.345 0-2.427.524-3.22 1.56v-.53c0-.514-.402-.916-.915-.916-.493 0-.895.41-.895.914v8.597c0 .513.4.915.914.915.51 0 .895-.393.895-.914v-5.016c0-1.728 1.15-2.934 2.8-2.934 1.61 0 2.57 1.054 2.57 2.82v5.13c0 .513.402.915.915.915.502 0 .896-.4.896-.914v-5.495c0-2.508-1.553-4.13-3.96-4.13zM102.89 20.936c-.497 0-.915.427-.915.933v12.063c0 .506.42.933.914.933.514 0 .933-.418.933-.933V21.87c0-.515-.42-.934-.934-.934zM113.088 20.802c-3.938 0-7.022 3.118-7.022 7.1v.037c0 4.025 3.003 7.06 6.984 7.06 3.938 0 7.023-3.118 7.023-7.1v-.037c0-4.026-3.003-7.06-6.985-7.06zm5.08 7.1v.037c0 3.037-2.184 5.328-5.08 5.328-2.916 0-5.115-2.307-5.115-5.367v-.037c0-3.037 2.183-5.328 5.078-5.328 2.87 0 5.118 2.357 5.118 5.366z"/>
  <path fill="#9CABBA" d="M51.414 16.66l2.372-5.29c.128-.283.355-.456.675-.456h.056c.32 0 .538.173.666.456l2.372 5.29c.046.083.064.165.064.238 0 .3-.228.538-.53.538-.263 0-.446-.155-.546-.392l-.52-1.195H52.92l-.538 1.23c-.09.23-.283.357-.52.357-.292 0-.52-.228-.52-.52-.002-.083.026-.165.072-.256zm4.178-1.806l-1.122-2.582-1.122 2.582h2.244zM58.83 11.534c0-.31.245-.566.565-.566h.12c.273 0 .428.137.583.328l3.193 4.133v-3.924c0-.3.247-.547.548-.547.31 0 .557.246.557.546v5.364c0 .31-.237.556-.547.556h-.046c-.264 0-.43-.137-.584-.338l-3.284-4.25v4.05c0 .3-.246.546-.547.546-.31 0-.556-.247-.556-.547v-5.353zM65.67 16.66l2.372-5.29c.128-.283.355-.456.675-.456h.055c.32 0 .538.173.666.456l2.372 5.29c.046.083.064.165.064.238 0 .3-.228.538-.53.538-.263 0-.446-.155-.546-.392l-.52-1.195h-3.102l-.538 1.23c-.09.23-.283.357-.52.357-.292 0-.52-.228-.52-.52 0-.083.026-.165.072-.256zm4.178-1.806l-1.122-2.582-1.122 2.582h2.244zM73.086 11.516c0-.31.246-.557.566-.557.31 0 .556.246.556.556v4.853H77.1c.283 0 .51.227.51.51 0 .283-.227.51-.51.51h-3.448c-.32 0-.566-.245-.566-.565v-5.31zM79.407 14.91l-2.2-3.02c-.072-.11-.127-.237-.127-.392 0-.3.246-.538.566-.538.246 0 .41.137.547.338l1.78 2.563 1.806-2.57c.136-.202.3-.34.537-.34.328 0 .547.247.547.548 0 .155-.073.292-.155.4l-2.18 2.984v1.998c0 .31-.248.557-.567.557-.31 0-.557-.247-.557-.557v-1.97zM85.527 12.045h-1.55c-.293 0-.52-.237-.52-.52 0-.283.227-.52.52-.52h4.24c.284 0 .512.237.512.52 0 .283-.23.52-.512.52h-1.56v4.835c0 .31-.255.557-.566.557-.31 0-.566-.247-.566-.557v-4.835zM89.933 11.516c0-.31.246-.557.565-.557.31 0 .557.246.557.556v5.364c0 .31-.246.557-.557.557-.32 0-.565-.247-.565-.557v-5.364zM92.477 14.216v-.018c0-1.816 1.36-3.302 3.293-3.302.985 0 1.633.292 2.19.72.12.092.22.247.22.448 0 .31-.247.547-.557.547-.155 0-.264-.054-.338-.11-.438-.354-.912-.574-1.523-.574-1.213 0-2.107 1.003-2.107 2.253v.017c0 1.25.885 2.263 2.107 2.263.675 0 1.13-.22 1.596-.61.082-.074.2-.13.337-.13.283 0 .53.238.53.52 0 .174-.083.31-.184.402-.6.53-1.285.858-2.316.858-1.86 0-3.247-1.45-3.247-3.284zM99.327 16.68c-.128-.093-.22-.248-.22-.43 0-.292.238-.52.53-.52.155 0 .255.046.328.1.53.42 1.095.657 1.788.657.693 0 1.13-.328 1.13-.802v-.018c0-.456-.254-.702-1.44-.976-1.36-.327-2.126-.73-2.126-1.906v-.018c0-1.095.912-1.852 2.18-1.852.802 0 1.45.21 2.025.593.128.073.246.228.246.447 0 .292-.237.52-.53.52-.108 0-.2-.028-.29-.082-.494-.32-.968-.483-1.47-.483-.657 0-1.04.336-1.04.756v.018c0 .493.292.71 1.524 1.003 1.35.328 2.043.812 2.043 1.87v.018c0 1.195-.94 1.907-2.28 1.907-.865 0-1.686-.274-2.398-.803zM108.066 11.57c0-.32.246-.566.566-.566h2.3c.73 0 1.304.2 1.668.566.283.283.43.63.43 1.058v.018c0 .766-.44 1.177-.913 1.423.748.254 1.268.683 1.268 1.55v.018c0 1.14-.94 1.752-2.363 1.752h-2.39c-.32 0-.566-.246-.566-.566V11.57zm2.636 2.126c.72 0 1.204-.283 1.204-.867v-.02c0-.5-.4-.81-1.122-.81h-1.615v1.696h1.532zm.328 2.7c.766 0 1.232-.3 1.232-.876v-.018c0-.538-.43-.858-1.313-.858h-1.78v1.752h1.86zM116.202 14.91l-2.2-3.02c-.072-.11-.127-.237-.127-.392 0-.3.246-.538.566-.538.247 0 .412.137.548.338l1.78 2.563 1.806-2.57c.137-.202.3-.34.538-.34.328 0 .547.247.547.548 0 .155-.074.292-.156.4l-2.18 2.984v1.998c0 .31-.247.557-.566.557-.31 0-.557-.247-.557-.557v-1.97z"/>
</svg>