<?xml version="1.0" encoding="utf-8"?>
<!-- Generator: Adobe Illustrator 16.0.0, SVG Export Plug-In . SVG Version: 6.00 Build 0)  -->
<!DOCTYPE svg PUBLIC "-//W3C//DTD SVG 1.1//EN" "http://www.w3.org/Graphics/SVG/1.1/DTD/svg11.dtd">
<svg version="1.1" id="Layer_1" xmlns="http://www.w3.org/2000/svg" xmlns:xlink="http://www.w3.org/1999/xlink" x="0px" y="0px"
	 width="200px" height="600px" viewBox="-202 283 200 600" xml:space="preserve">
<g>
	<path fill="#666667" d="M-10.987,306.588c-4.01-2.249-5.627-3.063-8-3.063c-2.193,0-3.252,1.124-3.252,2.859
		c0,5.214,12.561,3.783,12.561,15.947c0,6.643-3.662,10.63-9.879,10.63c-3.813,0-5.607-1.637-8.389-3.478v-7.462
		c4.008,3.271,5.627,4.495,8.652,4.495c2.328,0,3.25-1.226,3.25-3.27c0-5.724-12.48-3.576-12.48-16.15
		c0-6.026,2.498-10.017,8.965-10.017c3.107,0,5.051,0.814,8.57,2.76v6.745L-10.987,306.588L-10.987,306.588z"/>
	<path fill="#666667" d="M-107.991,297.393c5.729,0,8.246,4.808,8.246,10.021c0,3.781-1.557,6.645-4.746,8.48
		c-0.893,0.382-1.35,0.494-2.012,0.657l9.619,15.697h-6.771l-9.063-14.208v14.208h-6.115v-34.856H-107.991L-107.991,297.393z
		 M-112.718,311.705h2.846c1.963,0,3.846-1.022,3.846-3.986c0-2.658-1.393-3.981-4.01-3.981h-2.682V311.705z"/>
	<path fill="#666667" d="M-67.729,332.25h-6.609l-2.289-6.95h-10.842l-2.047,6.95h-6.523l10.369-34.855h6.424L-67.729,332.25z
		 M-82.335,305.674l-3.254,13.594h6.916L-82.335,305.674z"/>
	<path fill="#666667" d="M-59.573,332.25h-6.115v-34.855h6.115V332.25z"/>
	<path fill="#666667" d="M-31.178,332.25h-5.053L-49.1,309.866v22.384h-6.115v-34.855h5.545l12.375,21.264v-21.264h6.117V332.25z"/>
	<path fill="#666667" d="M-127.63,313.035c2.373-1.435,3.846-3.988,3.846-6.952c0-1.544-0.303-3.23-1.068-4.704
		c-2.244,1.989-4.723,4.152-5.469,4.804c0.115,0.402,0.176,0.821,0.176,1.229c0,1.839-0.98,3.781-3.52,3.781h-2.004v-1.795v-5.664
		v-0.845l7.303-4.784c-1.051-0.442-2.305-0.711-3.824-0.711h-9.596v34.854h10.229c8.184,0,9.902-6.234,9.902-10.221
		C-121.655,317.939-123.62,314.36-127.63,313.035z M-133.419,325.81h-2.25v-8.177h3.23c2.455,0,4.256,1.328,4.256,3.883
		C-128.182,324.587-129.573,325.81-133.419,325.81z"/>
	<path fill="#F18825" d="M-118.932,293.298c-0.381-0.239-4.857,2.545-7.668,4.504l-1.033,0.716l-7.195,4.831v5.354
		c1.541-1.052,2.785-2.038,3.676-2.931l5.383-4.61c0,0,2.691-2.419,4.105-3.833l0.523-0.49c0.396-0.356,0.664-0.597,0.664-0.929
		c0-0.02-0.002-0.037-0.002-0.057C-120.497,295.667-118.76,293.404-118.932,293.298z"/>
	<path fill="#F18825" d="M-147.153,316.05l4.379-2.975v-5.36l-3.926,2.563c0,0-3.5,2.271-4.723,3.063
		c0.092-0.688,0.186-1.418,0.186-1.418c0.617-4.558,1.184-9.104,1.184-12.133c0-1.465-0.133-2.574-0.459-3.152
		c-0.23-0.41-0.582-0.674-1.014-0.762c-0.574-0.118-1.242,0.083-1.883,0.568c-2.008,1.396-3.004,5.482-3.004,12.426
		c0,2.245,0.107,4.798,0.316,7.643c-0.232,0.21-1.389,1.251-1.389,1.251c0.018-0.015-1.984,1.747-1.984,1.747
		c-0.002,0.002-0.053,0.069-0.088,0.111c-1.854,1.639-3.021,2.558-3.467,2.729c-0.555,0.223-1.041,0.271-1.479,0.229
		c2.52-1.858,4.574-5.836,4.574-8.202c0-0.271-0.025-0.521-0.084-0.745c-0.412-1.618-1.227-2.794-2.361-3.399
		c-1.113-0.597-2.459-0.617-4.002-0.068l-0.602,0.244c-2.779,1.258-11.227,6.006-13.85,7.483c0.311-3.705,1.832-20.603,2.258-29.517
		c0.277-5.758,0-2.188,0-3.305c0-4.188-5.26,0.002-8.172,2.913c-1.223,1.223-5.041,4.711-3.658,7.365
		c1.488,2.856,3.057,1.899,3.879,6.817c1.445,8.646,0.342,17.512,0.344,18.082c-0.475,0.224-4.098,1.929-4.098,1.929
		c-6.242,2.892-10.986,5.082-10.986,8.688c0,0.563,0.115,1.156,0.357,1.795c5.18,13.545,12.24,20.835,15.023,20.098
		c4.035-1.074,4.199-6.379,4.447-14.4c0.123-4.001,0.27-8.533,0.885-13.636c0.324-0.204,7.109-5.253,8.371-6.061
		c-0.605,1.229-0.6,2.419-0.6,3.06c0,1.599,0.229,2.91,0.553,3.588c0.547,1.145,1.029,1.992,2.275,2.559
		c1.582,0.755,2.957,0.965,5.656-0.096c1.211-0.479,3.287-1.916,5.598-3.854c0.459,0.788,2.459,4.23,2.459,4.23l1.832,3.123
		c0.828,1.473,2.141,1.888,3.604,1.141c1.111-0.557,1.846-1.044,2.063-1.76c0.045-0.15,0.064-0.297,0.064-0.443
		c0-0.479-0.213-0.938-0.42-1.304c-2.104-3.746-2.244-7.011-2.244-9.493c0-0.16,0-0.316,0-0.472
		C-150.975,318.693-147.153,316.05-147.153,316.05z M-188.368,341.706c-1.658-1.342-2.443-2.476-3.654-5.409
		c-2.051-4.958,0.789-6.492,5.936-9.412C-186.7,332.168-187.128,342.95-188.368,341.706z M-167.87,320.512
		c-0.072-1.854-0.459-4.253,1.934-5.521c0.934-0.513,1.479-0.188,1.793,0.13C-163.512,315.752-164.925,318.677-167.87,320.512z"/>
</g>
<g>
	<path fill="#666667" d="M-99.223,495.788c-2.15-1.205-3.016-1.646-4.289-1.646c-1.178,0-1.744,0.604-1.744,1.535
		c0,2.795,6.736,2.027,6.736,8.551c0,3.563-1.965,5.701-5.299,5.701c-2.045,0-3.008-0.879-4.5-1.862v-4.005
		c2.15,1.759,3.018,2.412,4.641,2.412c1.25,0,1.744-0.653,1.744-1.752c0-3.066-6.691-1.918-6.691-8.662
		c0-3.229,1.338-5.368,4.807-5.368c1.666,0,2.709,0.438,4.596,1.479L-99.223,495.788L-99.223,495.788z"/>
	<path fill="#666667" d="M-151.243,490.857c3.07,0,4.42,2.573,4.42,5.368c0,2.027-0.832,3.564-2.545,4.552
		c-0.479,0.205-0.723,0.267-1.078,0.354l5.158,8.418h-3.631l-4.859-7.619v7.619h-3.281v-18.689L-151.243,490.857L-151.243,490.857z
		 M-153.778,498.532h1.525c1.053,0,2.063-0.55,2.063-2.143c0-1.426-0.748-2.137-2.15-2.137h-1.438V498.532z"/>
	<path fill="#666667" d="M-129.653,509.549h-3.543l-1.229-3.727h-5.814l-1.098,3.727h-3.498l5.561-18.688h3.445L-129.653,509.549z
		 M-137.485,495.297l-1.746,7.291h3.709L-137.485,495.297z"/>
	<path fill="#666667" d="M-125.278,509.549h-3.279V490.86h3.279V509.549z"/>
	<path fill="#666667" d="M-110.052,509.549h-2.711l-6.9-12.004v12.004h-3.279V490.86h2.973l6.639,11.397V490.86h3.279
		L-110.052,509.549L-110.052,509.549z"/>
	<path fill="#666667" d="M-161.774,499.245c1.271-0.771,2.063-2.14,2.063-3.729c0-0.828-0.162-1.729-0.572-2.521
		c-1.203,1.063-2.533,2.227-2.934,2.576c0.061,0.215,0.094,0.438,0.094,0.654c0,0.986-0.525,2.027-1.887,2.027h-1.074v-0.961v-3.039
		v-0.451l3.916-2.563c-0.564-0.238-1.236-0.382-2.053-0.382h-5.145v18.688h5.484c4.389,0,5.311-3.344,5.311-5.479
		C-158.571,501.875-159.624,499.956-161.774,499.245z M-164.88,506.095h-1.207v-4.385h1.732c1.316,0,2.281,0.711,2.281,2.082
		C-162.073,505.439-162.817,506.095-164.88,506.095z"/>
	<path fill="#F18825" d="M-157.112,488.661c-0.205-0.129-2.604,1.364-4.111,2.414l-0.555,0.385l-3.857,2.592v2.869
		c0.826-0.563,1.494-1.092,1.973-1.57l2.887-2.473c0,0,1.443-1.297,2.201-2.057l0.281-0.266c0.211-0.188,0.354-0.316,0.354-0.498
		c0-0.01,0-0.02,0-0.025C-157.95,489.929-157.018,488.717-157.112,488.661z"/>
	<path fill="#F18825" d="M-172.245,500.862l2.348-1.6v-2.875l-2.105,1.375c0,0-1.875,1.22-2.533,1.646
		c0.051-0.371,0.1-0.763,0.1-0.763c0.332-2.442,0.635-4.888,0.635-6.509c0-0.786-0.07-1.381-0.244-1.688
		c-0.125-0.22-0.313-0.361-0.545-0.408c-0.309-0.063-0.668,0.043-1.01,0.305c-1.078,0.748-1.611,2.941-1.611,6.664
		c0,1.203,0.059,2.572,0.17,4.101c-0.125,0.11-0.744,0.673-0.744,0.673c0.01-0.009-1.064,0.936-1.064,0.936
		c-0.002,0.002-0.027,0.037-0.047,0.063c-0.994,0.877-1.621,1.37-1.859,1.465c-0.297,0.116-0.559,0.143-0.793,0.121
		c1.352-0.996,2.455-3.132,2.455-4.398c0-0.145-0.016-0.276-0.045-0.396c-0.221-0.868-0.658-1.5-1.268-1.825
		c-0.596-0.316-1.318-0.33-2.146-0.037l-0.322,0.131c-1.49,0.676-6.02,3.226-7.428,4.019c0.168-1.987,0.984-11.052,1.211-15.828
		c0.148-3.088,0-1.174,0-1.772c0-2.244-2.82,0.002-4.383,1.563c-0.654,0.653-2.703,2.524-1.961,3.95
		c0.797,1.531,1.641,1.021,2.08,3.654c0.775,4.64,0.184,9.396,0.186,9.697c-0.256,0.121-2.197,1.035-2.197,1.035
		c-3.35,1.547-5.893,2.725-5.893,4.655c0,0.304,0.063,0.618,0.191,0.963c2.777,7.265,6.564,11.172,8.057,10.776
		c2.164-0.573,2.25-3.422,2.385-7.725c0.066-2.146,0.145-4.576,0.475-7.313c0.174-0.107,3.813-2.814,4.488-3.25
		c-0.324,0.658-0.322,1.298-0.322,1.643c0,0.854,0.125,1.563,0.297,1.926c0.293,0.61,0.553,1.067,1.221,1.369
		c0.85,0.403,1.586,0.518,3.033-0.052c0.65-0.257,1.764-1.026,3-2.063c0.248,0.422,1.32,2.271,1.32,2.271l0.98,1.675
		c0.445,0.788,1.148,1.012,1.934,0.609c0.596-0.301,0.988-0.563,1.105-0.941c0.025-0.082,0.035-0.16,0.035-0.238
		c0-0.258-0.115-0.502-0.225-0.699c-1.129-2.008-1.205-3.76-1.205-5.092c0-0.084,0-0.168,0-0.252
		C-174.296,502.28-172.245,500.862-172.245,500.862z M-194.348,514.62c-0.889-0.72-1.311-1.328-1.961-2.9
		c-1.1-2.657,0.424-3.479,3.184-5.047C-193.454,509.506-193.682,515.288-194.348,514.62z M-183.356,503.254
		c-0.039-0.996-0.246-2.279,1.039-2.961c0.5-0.273,0.791-0.101,0.959,0.067C-181.018,500.702-181.776,502.271-183.356,503.254z"/>
</g>
<g>
	<path fill="#136BA2" d="M-118.86,693.394c-1.737-0.977-2.436-1.328-3.464-1.328c-0.95,0-1.408,0.486-1.408,1.24
		c0,2.257,5.439,1.638,5.439,6.903c0,2.878-1.586,4.604-4.279,4.604c-1.65,0-2.427-0.708-3.632-1.505v-3.23
		c1.736,1.417,2.437,1.947,3.747,1.947c1.01,0,1.409-0.53,1.409-1.417c0-2.479-5.404-1.549-5.404-6.993
		c0-2.611,1.081-4.339,3.88-4.339c1.346,0,2.188,0.354,3.711,1.195L-118.86,693.394L-118.86,693.394z"/>
	<path fill="#136BA2" d="M-160.868,689.412c2.48,0,3.57,2.08,3.57,4.338c0,1.64-0.673,2.878-2.054,3.676
		c-0.385,0.162-0.585,0.214-0.871,0.283l4.166,6.8h-2.933l-3.924-6.153v6.153h-2.649v-15.097H-160.868z M-162.915,695.608h1.231
		c0.85,0,1.665-0.441,1.665-1.726c0-1.15-0.602-1.728-1.735-1.728h-1.161V695.608z"/>
	<path fill="#136BA2" d="M-143.432,704.506h-2.862l-0.992-3.01h-4.696l-0.885,3.01h-2.827l4.493-15.096h2.782L-143.432,704.506z
		 M-149.757,692.997l-1.41,5.89h2.995L-149.757,692.997z"/>
	<path fill="#136BA2" d="M-139.901,704.506h-2.649V689.41h2.649V704.506z"/>
	<path fill="#136BA2" d="M-127.604,704.506h-2.188l-5.572-9.692v9.692h-2.648V689.41h2.399l5.36,9.207v-9.207h2.649V704.506z"/>
	<path fill="#136BA2" d="M-169.373,696.186c1.028-0.621,1.666-1.729,1.666-3.011c0-0.669-0.131-1.398-0.463-2.038
		c-0.971,0.86-2.044,1.799-2.368,2.081c0.05,0.175,0.076,0.354,0.076,0.53c0,0.797-0.425,1.64-1.524,1.64h-0.868v-0.777v-2.453
		v-0.364l3.162-2.071c-0.455-0.192-0.999-0.31-1.656-0.31h-4.155v15.096h4.429c3.544,0,4.289-2.699,4.289-4.428
		C-166.786,698.31-167.637,696.76-169.373,696.186z M-171.88,701.719h-0.975v-3.542h1.399c1.063,0,1.843,0.573,1.843,1.683
		C-169.612,701.188-170.214,701.719-171.88,701.719z"/>
	<path fill="#FA930D" d="M-165.607,687.638c-0.166-0.104-2.104,1.103-3.321,1.95l-0.448,0.312l-3.116,2.091v2.318
		c0.668-0.454,1.206-0.882,1.592-1.27l2.332-1.998c0,0,1.166-1.048,1.778-1.657l0.228-0.214c0.17-0.152,0.286-0.259,0.286-0.4
		c0-0.008-0.001-0.019-0.001-0.024C-166.284,688.664-165.533,687.685-165.607,687.638z"/>
	<path fill="#FA930D" d="M-177.829,697.491l1.897-1.288v-2.319l-1.701,1.106c0,0-1.515,0.984-2.045,1.328
		c0.04-0.299,0.081-0.615,0.081-0.615c0.266-1.974,0.512-3.941,0.512-5.253c0-0.634-0.057-1.115-0.198-1.366
		c-0.101-0.176-0.253-0.291-0.439-0.33c-0.249-0.051-0.538,0.036-0.816,0.247c-0.869,0.604-1.301,2.376-1.301,5.383
		c0,0.972,0.048,2.076,0.137,3.31c-0.101,0.092-0.601,0.542-0.601,0.542c0.007-0.006-0.859,0.758-0.859,0.758
		s-0.024,0.028-0.038,0.048c-0.803,0.709-1.309,1.107-1.501,1.185c-0.24,0.094-0.45,0.112-0.641,0.099
		c1.091-0.806,1.981-2.528,1.981-3.553c0-0.117-0.012-0.229-0.036-0.322c-0.179-0.701-0.531-1.211-1.023-1.474
		c-0.482-0.258-1.064-0.27-1.732-0.029l-0.261,0.104c-1.204,0.546-4.862,2.604-5.997,3.241c0.133-1.604,0.792-8.922,0.978-12.781
		c0.118-2.492,0-0.947,0-1.432c0-1.813-2.279,0-3.54,1.263c-0.529,0.527-2.183,2.039-1.584,3.189
		c0.644,1.237,1.323,0.823,1.678,2.953c0.627,3.744,0.148,7.584,0.149,7.831c-0.206,0.095-1.773,0.834-1.773,0.834
		c-2.704,1.251-4.758,2.201-4.758,3.762c0,0.243,0.05,0.501,0.155,0.776c2.244,5.867,5.3,9.021,6.505,8.705
		c1.748-0.467,1.819-2.764,1.927-6.238c0.053-1.732,0.116-3.695,0.383-5.903c0.14-0.089,3.078-2.274,3.624-2.626
		c-0.262,0.533-0.259,1.049-0.259,1.326c0,0.69,0.1,1.26,0.24,1.555c0.236,0.493,0.445,0.861,0.985,1.104
		c0.685,0.327,1.28,0.42,2.448-0.04c0.525-0.207,1.425-0.83,2.424-1.669c0.199,0.342,1.065,1.833,1.065,1.833l0.794,1.354
		c0.358,0.639,0.926,0.816,1.56,0.492c0.481-0.237,0.799-0.45,0.894-0.761c0.02-0.064,0.028-0.129,0.028-0.192
		c0-0.209-0.093-0.404-0.182-0.563c-0.913-1.622-0.973-3.035-0.973-4.11c0-0.067,0-0.138,0-0.204
		C-179.485,698.637-177.829,697.491-177.829,697.491z M-195.678,708.602c-0.717-0.581-1.057-1.071-1.582-2.342
		c-0.888-2.148,0.342-2.813,2.571-4.076C-194.955,704.471-195.14,709.141-195.678,708.602z M-186.8,699.424
		c-0.032-0.808-0.199-1.844,0.838-2.395c0.404-0.22,0.639-0.08,0.775,0.059C-184.913,697.361-185.525,698.631-186.8,699.424z"/>
</g>
</svg>
